<?xml version="1.0" encoding="UTF-8" standalone="no"?>
<!-- Created with Inkscape (http://www.inkscape.org/) -->

<svg
   xmlns:dc="http://purl.org/dc/elements/1.1/"
   xmlns:cc="http://creativecommons.org/ns#"
   xmlns:rdf="http://www.w3.org/1999/02/22-rdf-syntax-ns#"
   xmlns:svg="http://www.w3.org/2000/svg"
   xmlns="http://www.w3.org/2000/svg"
   xmlns:sodipodi="http://sodipodi.sourceforge.net/DTD/sodipodi-0.dtd"
   xmlns:inkscape="http://www.inkscape.org/namespaces/inkscape"
   width="210mm"
   height="297mm"
   id="svg7623"
   version="1.1"
   inkscape:version="0.48.3.1 r9886"
   sodipodi:docname="New document 15">
  <defs
     id="defs3" />
  <sodipodi:namedview
     inkscape:document-units="mm"
     id="base"
     pagecolor="#ffffff"
     bordercolor="#666666"
     borderopacity="1.0"
     inkscape:pageopacity="0.0"
     inkscape:pageshadow="2"
     inkscape:zoom="1.979899"
     inkscape:cx="244.1366"
     inkscape:cy="745.05414"
     inkscape:current-layer="layer1"
     showgrid="false"
     inkscape:window-width="1336"
     inkscape:window-height="721"
     inkscape:window-x="30"
     inkscape:window-y="0"
     inkscape:window-maximized="1" />
  <metadata
     id="metadata4">
    <rdf:RDF>
      <cc:Work
         rdf:about="">
        <dc:format>image/svg+xml</dc:format>
        <dc:type
           rdf:resource="http://purl.org/dc/dcmitype/StillImage" />
        <dc:title></dc:title>
      </cc:Work>
    </rdf:RDF>
  </metadata>
  <g
     inkscape:label="Layer 1"
     inkscape:groupmode="layer"
     id="layer1">
    <path
       style="fill:#002255;fill-opacity:1;stroke:none"
       d="M 138.53125 209.25 L 138.53125 213.34375 C 139.57331 227.95802 149.1474 260.08576 149.5625 261.0625 C 150.02938 262.16113 151.15625 266.18742 151.15625 269.1875 C 151.15625 276.05069 147.14035 283.28673 141.78125 285.4375 L 214.71875 285.4375 L 214.71875 279.03125 L 214.125 279.03125 L 214.125 269.96875 L 211.25 276.65625 L 209.21875 276.65625 L 206.375 269.96875 L 206.375 279.03125 L 203.34375 279.03125 L 203.34375 266.65625 L 207.40625 266.65625 L 210.25 273.28125 L 213.0625 266.65625 L 214.71875 266.65625 L 214.71875 253.03125 L 210.28125 248.65625 L 210.28125 253.53125 L 207.09375 253.53125 L 207.09375 241.15625 L 210.28125 241.15625 L 210.28125 245.65625 L 214.71875 241.34375 L 214.71875 228.03125 L 213.5625 228.03125 L 209.0625 219.53125 L 209.0625 228.03125 L 206.03125 228.03125 L 206.03125 215.65625 L 209.59375 215.65625 L 214.125 224.15625 L 214.125 215.65625 L 214.71875 215.65625 L 214.71875 209.25 L 138.53125 209.25 z M 173.46875 215.65625 L 178.34375 215.65625 C 179.23469 215.65626 179.99967 215.71453 180.625 215.875 C 181.25032 216.03549 181.73957 216.28387 182.09375 216.59375 C 182.44791 216.90366 182.69433 217.25229 182.84375 217.65625 C 182.99869 218.0547 183.06249 218.52573 183.0625 219.0625 C 183.06249 220.68393 182.27571 221.75196 180.6875 222.25 C 181.16894 222.36068 181.59993 222.58692 181.9375 222.96875 C 182.28059 223.35059 182.58528 223.88933 182.90625 224.53125 L 184.65625 228.03125 L 181.25 228.03125 L 179.75 224.96875 C 179.46777 224.3877 179.15917 223.96224 178.84375 223.71875 C 178.53385 223.46973 178.10481 223.34375 177.5625 223.34375 L 176.65625 223.34375 L 176.65625 228.03125 L 173.46875 228.03125 L 173.46875 215.65625 z M 189.65625 215.65625 L 193.46875 215.65625 L 198.0625 228.03125 L 194.84375 228.03125 L 194.0625 225.78125 L 189.0625 225.78125 L 188.28125 228.03125 L 185.0625 228.03125 L 189.65625 215.65625 z M 199.6875 215.65625 L 202.90625 215.65625 L 202.90625 228.03125 L 199.6875 228.03125 L 199.6875 215.65625 z M 176.65625 217.96875 L 176.65625 221.125 L 178 221.125 C 178.69172 221.12501 179.19205 221.0101 179.46875 220.75 C 179.75097 220.48992 179.87499 220.07911 179.875 219.53125 C 179.87499 218.9502 179.74185 218.54493 179.4375 218.3125 C 179.13313 218.07455 178.64192 217.96876 178 217.96875 L 176.65625 217.96875 z M 191.5625 218.5625 L 189.875 223.46875 L 193.25 223.46875 L 191.5625 218.5625 z M 163.9375 241.15625 L 167 241.15625 L 169.15625 250.15625 L 171.28125 241.15625 L 174.34375 241.15625 L 176.46875 250.15625 L 178.625 241.15625 L 181.65625 241.15625 L 178.75 253.53125 L 175.0625 253.53125 L 172.8125 244.125 L 170.5625 253.53125 L 166.875 253.53125 L 163.9375 241.15625 z M 186.25 241.15625 L 190.0625 241.15625 L 194.625 253.53125 L 191.4375 253.53125 L 190.65625 251.28125 L 185.65625 251.28125 L 184.875 253.53125 L 181.65625 253.53125 L 186.25 241.15625 z M 196.28125 241.15625 L 199.46875 241.15625 L 199.46875 251.125 L 205.09375 251.125 L 205.09375 253.53125 L 196.28125 253.53125 L 196.28125 241.15625 z M 188.15625 244.0625 L 186.4375 248.96875 L 189.84375 248.96875 L 188.15625 244.0625 z M 214.71875 244.96875 L 212.65625 247 L 214.71875 249.0625 L 214.71875 244.96875 z M 183.53125 266.65625 L 186.59375 266.65625 L 188.75 275.65625 L 190.875 266.65625 L 193.9375 266.65625 L 196.0625 275.65625 L 198.21875 266.65625 L 201.25 266.65625 L 198.3125 279.03125 L 194.625 279.03125 L 192.375 269.625 L 190.15625 279.03125 L 186.46875 279.03125 L 183.53125 266.65625 z "
       id="rect12038" />
  </g>
</svg>
