<?xml version="1.0" encoding="UTF-8" standalone="no"?>
<!-- Created with Inkscape (http://www.inkscape.org/) -->

<svg
   xmlns:dc="http://purl.org/dc/elements/1.1/"
   xmlns:cc="http://creativecommons.org/ns#"
   xmlns:rdf="http://www.w3.org/1999/02/22-rdf-syntax-ns#"
   xmlns:svg="http://www.w3.org/2000/svg"
   xmlns="http://www.w3.org/2000/svg"
   xmlns:sodipodi="http://sodipodi.sourceforge.net/DTD/sodipodi-0.dtd"
   xmlns:inkscape="http://www.inkscape.org/namespaces/inkscape"
   width="744.09448819"
   height="1052.3622047"
   id="svg6666"
   version="1.1"
   inkscape:version="0.48.3.1 r9886"
   sodipodi:docname="45circle_2.svg">
  <defs
     id="defs6668">
    <inkscape:perspective
       sodipodi:type="inkscape:persp3d"
       inkscape:vp_x="0 : 526.18109 : 1"
       inkscape:vp_y="0 : 1000 : 0"
       inkscape:vp_z="744.09448 : 526.18109 : 1"
       inkscape:persp3d-origin="372.04724 : 350.78739 : 1"
       id="perspective7387" />
  </defs>
  <sodipodi:namedview
     id="base"
     pagecolor="#ffffff"
     bordercolor="#666666"
     borderopacity="1.0"
     inkscape:pageopacity="0.0"
     inkscape:pageshadow="2"
     inkscape:zoom="0.50933035"
     inkscape:cx="227.11598"
     inkscape:cy="458.98584"
     inkscape:document-units="px"
     inkscape:current-layer="layer1"
     showgrid="false"
     inkscape:window-width="1336"
     inkscape:window-height="721"
     inkscape:window-x="30"
     inkscape:window-y="0"
     inkscape:window-maximized="1" />
  <metadata
     id="metadata6671">
    <rdf:RDF>
      <cc:Work
         rdf:about="">
        <dc:format>image/svg+xml</dc:format>
        <dc:type
           rdf:resource="http://purl.org/dc/dcmitype/StillImage" />
      </cc:Work>
    </rdf:RDF>
  </metadata>
  <g
     inkscape:label="Layer 1"
     inkscape:groupmode="layer"
     id="layer1">
    <path
       style="fill:#aa0000;fill-opacity:1;stroke:#16202b;stroke-width:4.79999999999999982;stroke-linecap:round;stroke-linejoin:round;stroke-miterlimit:4;stroke-opacity:1;stroke-dasharray:none;stroke-dashoffset:49.99999523000000323"
       d="M 398.0625 251.0625 C 368.95694 251.27288 340.15274 256.62437 313.03125 266.75 C 261.10639 286.13586 215.34463 323.0347 185.46875 374.78125 C 117.18094 493.05908 157.69087 644.2747 275.96875 712.5625 C 280.87292 715.39385 285.86569 718.0092 290.875 720.46875 C 288.40927 718.34493 286.57077 715.94528 285.4375 713.21875 C 283.42877 708.34195 283.77733 703.05298 286.46875 697.34375 C 289.16022 691.63447 293.00072 688.00198 298.03125 686.46875 C 303.07153 684.91494 308.72359 685.61847 314.96875 688.5625 C 316.78243 689.41759 318.46602 690.43808 320.0625 691.59375 C 321.68925 692.73854 323.2368 694.00385 324.6875 695.46875 L 320.40625 704.53125 C 319.38742 702.79141 318.29195 701.30749 317 700.09375 C 315.72854 698.88983 314.25324 697.89263 312.625 697.125 C 309.5333 695.66759 306.7113 695.40867 304.125 696.40625 C 301.56892 697.39299 299.49417 699.54528 297.96875 702.78125 C 296.44325 706.01715 296.14431 708.94228 297 711.5625 C 297.88598 714.17184 299.84577 716.19882 302.9375 717.65625 C 304.66875 718.47244 306.42997 719.00533 308.21875 719.21875 C 310.02801 719.4419 311.82976 719.35687 313.625 718.96875 L 309.34375 728 C 308.57469 727.933 307.81806 727.86842 307.0625 727.75 C 326.39659 735.57956 346.32266 740.75647 366.34375 743.46875 L 370.5 705.53125 L 382.6875 706.875 L 378.5 744.84375 C 398.71398 746.56336 418.97119 745.78016 438.78125 742.59375 L 431.03125 705.375 L 443.03125 702.875 L 444.28125 709.03125 C 445.30906 706.25674 446.71581 704.09166 448.46875 702.5625 C 450.23929 701.00648 452.52404 699.92489 455.3125 699.34375 C 455.71397 699.25995 456.14721 699.20932 456.625 699.15625 C 457.09806 699.08095 457.80318 699.01196 458.71875 698.9375 L 461 709.75 C 459.84927 709.47774 458.71991 709.37967 457.625 709.375 C 456.5477 709.3435 455.51715 709.40655 454.46875 709.625 C 451.39033 710.26661 449.1968 711.75977 447.9375 714.09375 C 446.69592 716.40083 446.45167 719.41311 447.21875 723.09375 L 450.84375 740.34375 C 477.54164 734.68761 503.22449 724.61311 526.8125 710.5 C 523.68291 711.41791 520.65973 711.68961 517.75 711.15625 C 512.56514 710.18881 508.32643 706.98916 505 701.625 C 501.67351 696.26088 500.73745 691.08643 502.1875 686.03125 C 503.62558 680.9568 507.25741 676.57632 513.125 672.9375 C 514.82913 671.88077 516.63057 670.99223 518.46875 670.28125 C 520.31427 669.53899 522.2316 668.98291 524.25 668.5625 L 529.5 677 C 527.48587 676.9084 525.62753 677.07604 523.90625 677.5 C 522.20439 677.91188 520.59237 678.61384 519.0625 679.5625 C 516.15774 681.36387 514.41366 683.59962 513.84375 686.3125 C 513.28126 688.99404 513.95831 691.86595 515.84375 694.90625 C 517.72908 697.94655 519.99207 699.85528 522.65625 700.5625 C 525.32769 701.23858 528.12649 700.64509 531.03125 698.84375 C 532.65789 697.83498 534.03532 696.6348 535.1875 695.25 C 536.35898 693.85319 537.2865 692.31117 537.9375 690.59375 L 543.21875 699.09375 C 542.7157 699.73899 542.16854 700.33653 541.625 700.9375 C 558.24193 689.30567 573.53924 675.51934 587.125 659.6875 L 546 626.09375 L 553.78125 616.625 L 594.875 650.1875 C 601.71256 641.36878 608.07684 631.99694 613.8125 622.0625 C 620.09532 611.18024 625.41031 600.00667 629.875 588.65625 C 628.04048 591.1863 625.87752 593.17554 623.375 594.5 C 618.75647 596.9079 613.48273 596.99399 607.5 594.84375 C 601.62449 592.73205 597.62627 589.31073 595.53125 584.5625 C 593.44407 579.79292 593.51498 574.31243 595.75 568.09375 C 597.78468 562.43275 601.12278 558.53768 605.75 556.375 C 610.38498 554.19094 615.546 554.10621 621.25 556.15625 L 624.53125 557.3125 L 614.875 584.25 C 617.67703 584.94235 620.01669 584.7183 621.96875 583.53125 C 623.92083 582.34429 625.45228 580.25217 626.53125 577.25 C 627.40208 574.82695 627.92319 572.19091 628.125 569.40625 C 628.31303 566.59248 628.18235 563.61079 627.6875 560.40625 L 636.5625 563.59375 C 636.6012 565.96275 636.48191 568.27081 636.21875 570.53125 C 639.96951 558.263 642.72358 545.8231 644.5 533.34375 C 637.58709 537.20604 629.88243 540.67631 621.4375 543.75 C 611.37363 547.41292 600.80294 550.30048 589.6875 552.40625 C 581.18584 554.0024 572.25797 555.16902 562.9375 555.90625 C 559.43675 565.81942 555.00891 575.53529 549.5625 584.96875 C 501.76112 667.76319 395.88825 696.1139 313.09375 648.3125 C 230.29924 600.51103 201.9173 494.66949 249.71875 411.875 C 297.52022 329.0805 403.39304 300.66731 486.1875 348.46875 C 488.01824 349.52569 489.78523 350.63714 491.5625 351.75 L 479.53125 318.625 L 541.71875 295.96875 C 535.80183 291.82542 529.65454 287.92961 523.28125 284.25 C 483.77833 261.44293 440.6014 250.75502 398.0625 251.0625 z M 568.09375 317.28125 L 519.125 335.09375 L 540.53125 393.875 C 544.65747 390.55471 548.96833 387.68293 553.40625 385.21875 C 557.80517 382.64786 562.35178 380.49594 567.0625 378.78125 C 583.00758 372.97783 597.92431 370.50355 611.8125 371.34375 C 600.02125 351.6107 585.4006 333.3509 568.09375 317.28125 z M 600.65625 402.6875 C 591.55222 402.51617 581.79339 404.33309 571.375 408.125 C 564.84092 410.50332 558.51087 413.43404 552.375 416.90625 C 569.88186 449.79894 576.53743 487.86512 570.71875 525.15625 C 572.77296 525.03944 574.83175 524.90097 576.875 524.6875 C 588.08804 523.51622 599.41938 520.82577 610.875 516.65625 C 627.2601 510.69261 639.23507 502.01765 646.8125 490.625 C 645.94795 463.98431 640.80057 437.68573 631.625 412.78125 C 628.29294 410.34906 624.65006 408.32128 620.6875 406.71875 C 614.40532 404.17831 607.73716 402.82076 600.65625 402.6875 z M 372.15625 690.71875 L 384.28125 692.0625 L 383.25 701.96875 L 371.0625 700.65625 L 372.15625 690.71875 z "
       id="path7430" />
    <path
       id="path7412"
       style="fill:#000000;fill-opacity:1;stroke:#162d46;stroke-width:5;stroke-linecap:round;stroke-linejoin:round;stroke-miterlimit:4;stroke-opacity:1;stroke-dasharray:none;stroke-dashoffset:49.99999523000000323"
       d="m 607.20781,566.6536 c -1.80561,0.77967 -3.09808,2.19835 -3.83799,4.25688 -0.80114,2.23032 -0.80512,4.2521 -0.0409,6.10067 0.74278,1.84081 2.21915,3.3733 4.45469,4.56414 l 5.39405,-14.96617 c -2.1871,-0.78647 -4.17793,-0.76421 -5.96983,0.0445 z m -235.05156,124.06515 -1.09375,9.9375 12.1875,1.3125 1.03125,-9.90625 -12.125,-1.34375 z M 369.1875,390.75 333.84375,548.59375 415.78125,518.78125 369.1875,390.75 z m 22,-39.96875 56.875,156.25 34.21875,-12.46875 9.8125,27 L 457.875,534 l 20.59375,56.53125 -32.28125,11.75 L 425.59375,545.75 317.375,585.15625 305.96875,553.8125 350.40625,365.625 391.1875,350.78125 z m 171.75,205.125 c -2.74819,0.21737 -5.52441,0.38857 -8.34375,0.53125 L 542.75,523.84375 c 9.44125,1.42204 18.74932,1.83677 27.96875,1.3125 5.81868,-37.2911 -0.83689,-75.35731 -18.34375,-108.25 -2.00761,1.13606 -4.03503,2.30931 -6,3.5625 -7.86356,5.04463 -15.51884,11.22106 -23.03125,18.5625 L 491.5625,351.75 c -1.77727,-1.11286 -3.54426,-2.22431 -5.375,-3.28125 -82.79446,-47.80144 -188.66728,-19.38825 -236.46875,63.40625 -47.80145,82.79452 -19.41951,188.636 63.375,236.4375 82.7945,47.8014 188.66737,19.45075 236.46875,-63.34375 5.44641,-9.4334 9.87425,-19.1493 13.375,-29.0625 z m 68.6875,-143.125 c 9.17557,24.90448 14.32295,51.20305 15.1875,77.84375 0.98822,-1.48542 1.91171,-2.9847 2.75,-4.5625 7.26709,-13.67814 7.86001,-28.89207 1.78125,-45.59375 -4.40142,-12.09249 -10.97665,-21.30623 -19.71875,-27.6875 z m -63.53125,-95.5 c 17.30685,16.06965 31.9275,34.32945 43.71875,54.0625 7.98645,0.48318 15.60871,2.07383 22.90625,4.75 -12.65909,-24.29291 -28.95115,-46.38076 -48.1875,-65.53125 l -18.4375,6.71875 z M 399.5625,233.34375 c -146.38197,0 -265.0625,118.68056 -265.0625,265.0625 0,146.382 118.68053,265.03125 265.0625,265.03125 139.15694,0 253.23247,-107.21859 264.15625,-243.5625 -5.56864,4.92362 -11.9639,9.41538 -19.21875,13.46875 -1.77642,12.4794 -4.53049,24.9193 -8.28125,37.1875 0.26316,-2.2604 0.38245,-4.5685 0.34375,-6.9375 l -8.875,-3.1875 c 0.49485,3.2046 0.62553,6.1863 0.4375,9 -0.20181,2.7847 -0.72292,5.42065 -1.59375,7.84375 -1.07897,3.0021 -2.61042,5.09435 -4.5625,6.28125 -1.95206,1.1871 -4.29172,1.41105 -7.09375,0.71875 l 9.65625,-26.9375 -3.28125,-1.15625 c -5.704,-2.05 -10.86502,-1.96535 -15.5,0.21875 -4.62722,2.1627 -7.96532,6.05775 -10,11.71875 -2.23502,6.2187 -2.30593,11.69915 -0.21875,16.46875 2.09502,4.7482 6.09324,8.16955 11.96875,10.28125 5.98273,2.1503 11.25647,2.06415 15.875,-0.34375 2.50252,-1.3245 4.66548,-3.31365 6.5,-5.84375 -4.46469,11.3504 -9.77968,22.52395 -16.0625,33.40625 -5.73566,9.9344 -12.09994,19.3063 -18.9375,28.125 L 553.78125,616.625 546,626.09375 587.125,659.6875 c -13.58576,15.8318 -28.88307,29.6181 -45.5,41.25 0.54354,-0.601 1.0907,-1.19845 1.59375,-1.84375 l -5.28125,-8.5 c -0.651,1.7174 -1.57852,3.25945 -2.75,4.65625 -1.15218,1.3848 -2.52961,2.58505 -4.15625,3.59375 -2.90476,1.8014 -5.70356,2.39485 -8.375,1.71875 -2.66418,-0.7072 -4.92717,-2.61595 -6.8125,-5.65625 -1.88544,-3.0403 -2.56249,-5.91225 -2,-8.59375 0.56991,-2.7129 2.31399,-4.9487 5.21875,-6.75 1.52987,-0.9487 3.14189,-1.6506 4.84375,-2.0625 1.72128,-0.424 3.57962,-0.5916 5.59375,-0.5 l -5.25,-8.4375 c -2.0184,0.4204 -3.93573,0.97655 -5.78125,1.71875 -1.83818,0.711 -3.63962,1.59945 -5.34375,2.65625 -5.86759,3.6388 -9.49942,8.01935 -10.9375,13.09375 -1.45005,5.0552 -0.51399,10.22965 2.8125,15.59375 3.32643,5.3641 7.56514,8.56385 12.75,9.53125 2.90973,0.5334 5.93291,0.26165 9.0625,-0.65625 -23.58801,14.1131 -49.27086,24.18765 -75.96875,29.84375 l -3.625,-17.25 c -0.76708,-3.6806 -0.52283,-6.6929 0.71875,-9 1.2593,-2.334 3.45283,-3.82715 6.53125,-4.46875 1.0484,-0.2185 2.07895,-0.2815 3.15625,-0.25 1.09491,0 2.22427,0.1027 3.375,0.375 l -2.28125,-10.8125 c -0.91557,0.074 -1.62069,0.14345 -2.09375,0.21875 -0.47779,0.053 -0.91103,0.1037 -1.3125,0.1875 -2.78846,0.5812 -5.07321,1.66275 -6.84375,3.21875 -1.75294,1.5291 -3.15969,3.69425 -4.1875,6.46875 l -1.25,-6.15625 -12,2.5 7.75,37.21875 c -19.81006,3.1864 -40.06727,3.9696 -60.28125,2.25 l 4.1875,-37.96875 -12.1875,-1.34375 -4.15625,37.9375 c -20.02109,-2.7123 -39.94716,-7.88925 -59.28125,-15.71875 0.75556,0.1184 1.51219,0.183 2.28125,0.25 l 4.28125,-9.03125 c -1.79524,0.3881 -3.59699,0.4732 -5.40625,0.25 -1.78878,-0.2134 -3.55,-0.7463 -5.28125,-1.5625 -3.09173,-1.4574 -5.05152,-3.48445 -5.9375,-6.09375 -0.85569,-2.6202 -0.55675,-5.54535 0.96875,-8.78125 1.52542,-3.2359 3.60017,-5.3882 6.15625,-6.375 2.5863,-0.9976 5.4083,-0.73865 8.5,0.71875 1.62824,0.7676 3.10354,1.76485 4.375,2.96875 1.29195,1.2138 2.38742,2.6977 3.40625,4.4375 l 4.28125,-9.0625 c -1.4507,-1.4649 -2.99825,-2.7302 -4.625,-3.875 -1.59648,-1.1556 -3.28007,-2.17615 -5.09375,-3.03125 -6.24516,-2.9441 -11.89722,-3.64755 -16.9375,-2.09375 -5.03053,1.5333 -8.87103,5.1657 -11.5625,10.875 -2.69142,5.7093 -3.03998,10.9982 -1.03125,15.875 1.13327,2.7266 2.97177,5.1262 5.4375,7.25 -5.00931,-2.4595 -10.00208,-5.07495 -14.90625,-7.90625 -118.27788,-68.2878 -158.78781,-219.50338 -90.5,-337.78125 29.87588,-51.74655 75.63764,-88.64539 127.5625,-108.03125 27.12149,-10.12563 55.92569,-15.47712 85.03125,-15.6875 42.5389,-0.30748 85.71583,10.38043 125.21875,33.1875 6.37329,3.67961 12.52058,7.57542 18.4375,11.71875 l 19.96875,-7.25 c -44.81527,-34.70981 -101.05222,-55.375 -162.125,-55.375 z" />
  </g>
</svg>
