<?xml version="1.0" encoding="UTF-8" standalone="no"?>
<!-- Created with Inkscape (http://www.inkscape.org/) -->

<svg
   xmlns:dc="http://purl.org/dc/elements/1.1/"
   xmlns:cc="http://creativecommons.org/ns#"
   xmlns:rdf="http://www.w3.org/1999/02/22-rdf-syntax-ns#"
   xmlns:svg="http://www.w3.org/2000/svg"
   xmlns="http://www.w3.org/2000/svg"
   xmlns:sodipodi="http://sodipodi.sourceforge.net/DTD/sodipodi-0.dtd"
   xmlns:inkscape="http://www.inkscape.org/namespaces/inkscape"
   width="744.09448819"
   height="1052.3622047"
   id="svg6666"
   version="1.1"
   inkscape:version="0.48.3.1 r9886"
   sodipodi:docname="45circle.svg">
  <defs
     id="defs6668" />
  <sodipodi:namedview
     id="base"
     pagecolor="#ffffff"
     bordercolor="#666666"
     borderopacity="1.0"
     inkscape:pageopacity="0.0"
     inkscape:pageshadow="2"
     inkscape:zoom="0.50933035"
     inkscape:cx="349.0994"
     inkscape:cy="287.10381"
     inkscape:document-units="px"
     inkscape:current-layer="layer1"
     showgrid="false"
     inkscape:window-width="1336"
     inkscape:window-height="721"
     inkscape:window-x="30"
     inkscape:window-y="0"
     inkscape:window-maximized="1" />
  <metadata
     id="metadata6671">
    <rdf:RDF>
      <cc:Work
         rdf:about="">
        <dc:format>image/svg+xml</dc:format>
        <dc:type
           rdf:resource="http://purl.org/dc/dcmitype/StillImage" />
        <dc:title></dc:title>
      </cc:Work>
    </rdf:RDF>
  </metadata>
  <g
     inkscape:label="Layer 1"
     inkscape:groupmode="layer"
     id="layer1">
    <path
       style="fill:#d40000;fill-opacity:1;stroke:#162d46;stroke-width:6;stroke-linecap:round;stroke-linejoin:round;stroke-miterlimit:4;stroke-opacity:1;stroke-dasharray:144,6;stroke-dashoffset:0"
       d="m 363.56573,310.03556 c -63.28928,0.006 -126.55701,24.15076 -174.84375,72.4375 -96.573481,96.57347 -96.573471,253.14528 0,349.71875 3.44388,3.44389 6.97143,6.7392 10.5625,9.9375 -1.56295,-2.33953 -2.53815,-4.75029 -2.84375,-7.28125 -0.52757,-4.48995 0.9872,-8.78725 4.53125,-12.875 3.54401,-4.08773 7.55588,-6.18169 12.0625,-6.28125 4.51937,-0.11428 9.02854,1.77958 13.5,5.65625 1.29859,1.12593 2.48149,2.33269 3.53125,3.65625 1.07715,1.32167 2.01722,2.76752 2.875,4.3125 l -5.59375,6.4375 c -0.4376,-1.67185 -1.05882,-3.13655 -1.84375,-4.4375 -0.77026,-1.28816 -1.74046,-2.45799 -2.90625,-3.46875 -2.21361,-1.91914 -4.47828,-2.75516 -6.84375,-2.53125 -2.33799,0.22195 -4.52257,1.49564 -6.53125,3.8125 -2.00873,2.31689 -2.94273,4.63945 -2.84375,7 0.12648,2.35859 1.25515,4.51833 3.46875,6.4375 1.23958,1.07471 2.57334,1.87809 4,2.46875 1.44138,0.60343 2.95984,0.96675 4.53125,1.0625 l -5.625,6.5 c -0.67264,-0.25373 -1.35449,-0.54361 -2,-0.84375 14.07737,11.09208 29.11085,20.43102 44.75,28.03125 l 13.65625,-29.75 9.5,4.40625 -13.6875,29.75 0.0313,0 c 15.97873,6.93964 32.52688,12.0948 49.375,15.5 l 5.1875,-32.1875 10.34375,1.6875 -0.84375,5.3125 c 1.67266,-1.90632 3.44083,-3.21903 5.3125,-3.90625 1.89401,-0.70333 4.05849,-0.85762 6.46875,-0.46875 0.34705,0.056 0.72626,0.14613 1.125,0.25 0.40176,0.0846 0.96299,0.24792 1.71875,0.46875 l -1.46875,9.34375 c -0.83784,-0.57041 -1.71864,-1.00469 -2.59375,-1.34375 -0.85277,-0.3552 -1.71877,-0.60375 -2.625,-0.75 -2.66092,-0.42933 -4.87074,0.0798 -6.59375,1.5625 -1.70067,1.46659 -2.79916,3.8185 -3.3125,7 l -2.375,14.875 c 23.19412,3.67267 46.81631,4.06915 70.09375,1.125 -2.79498,-0.35937 -5.26416,-1.22074 -7.375,-2.65625 -3.73013,-2.55421 -5.96842,-6.51712 -6.71875,-11.875 -0.75032,-5.35785 0.29979,-9.78868 3.1875,-13.25 2.88499,-3.4806 7.26422,-5.61672 13.125,-6.4375 1.70212,-0.23834 3.4063,-0.3292 5.09375,-0.25 1.70407,0.0572 3.42814,0.28691 5.15625,0.65625 l 1.15625,8.46875 c -1.54747,-0.76935 -3.03492,-1.2987 -4.53125,-1.5625 -1.47703,-0.26644 -3.00323,-0.3077 -4.53125,-0.0937 -2.9014,0.40635 -5.01986,1.6016 -6.40625,3.53125 -1.36978,1.90764 -1.86279,4.36949 -1.4375,7.40625 0.42527,3.03679 1.56244,5.30395 3.40625,6.78125 1.86041,1.45527 4.25486,1.96883 7.15625,1.5625 1.62475,-0.22752 3.117,-0.68826 4.5,-1.375 1.40228,-0.68941 2.67604,-1.5976 3.78125,-2.71875 l 1.15625,8.5 c -0.64685,0.34725 -1.27277,0.70585 -1.9375,1 17.23297,-3.24569 34.17153,-8.35241 50.53125,-15.28125 l -18.625,-41.53125 9.5625,-4.28125 18.625,41.5 c 18.05984,-8.5765 35.31605,-19.45294 51.28125,-32.65625 -2.45675,1.14946 -4.9231,1.71326 -7.375,1.65625 -4.46251,-0.13138 -8.48685,-2.26298 -12.0625,-6.375 -3.51156,-4.03831 -5.04473,-8.2589 -4.625,-12.6875 0.43449,-4.44135 2.81962,-8.53335 7.09375,-12.25 3.89094,-3.38338 8.0086,-4.91219 12.375,-4.59375 4.38114,0.30571 8.27844,2.42338 11.6875,6.34375 l 1.9375,2.25 -18.5,16.125 c 1.80642,1.69045 3.69924,2.4774 5.65625,2.40625 1.95699,-0.0711 3.96788,-0.987 6.03125,-2.78125 1.66544,-1.44816 3.15254,-3.1888 4.46875,-5.1875 1.31811,-2.02618 2.46668,-4.36451 3.4375,-6.96875 l 5.3125,6.125 c -0.97918,1.81952 -2.05286,3.52029 -3.21875,5.125 1.76983,-1.66985 3.51805,-3.33055 5.25,-5.0625 12.62078,-12.62078 23.58418,-26.28415 32.90625,-40.6875 -2.28084,0.0757 -4.58661,0.0937 -6.9375,0.0937 -12.23968,-1e-5 -24.73967,-1.04167 -37.5,-3.125 -4.29869,-0.70906 -8.65825,-1.54962 -13.0625,-2.5 -3.29523,3.8407 -6.73719,7.58094 -10.375,11.21875 -77.25879,77.25879 -202.52247,77.2588 -279.78125,0 -77.25879,-77.25879 -77.25879,-202.49121 0,-279.75 76.09341,-76.09341 198.75202,-77.26593 276.25,-3.46875 l 0,-19.65625 49.625,0 c -3.55815,-4.05288 -7.25701,-8.00701 -11.125,-11.875 C 490.154,334.18632 426.85501,310.03003 363.56573,310.03556 z m 172.5,117.53125 0,32.8125 c 6.27447,11.151 11.40104,22.78769 15.34375,34.71875 0.61727,-0.11031 1.22648,-0.24553 1.84375,-0.34375 5.72906,-1.04147 11.45823,-1.56231 17.1875,-1.5625 11.87655,7e-5 22.86352,1.18791 32.9375,3.5625 -6.06251,-24.10258 -15.79775,-47.4489 -29.21875,-69.1875 l -38.09375,0 z m 27.5625,98.8125 c -1.54862,2e-5 -3.10764,0.0432 -4.65625,0.0937 6.91452,44.01932 -1.04061,89.92667 -23.90625,129.59375 9.15881,1.5712 18.68347,2.34377 28.5625,2.34375 10.01235,10e-6 19.08976,-1.15908 27.25,-3.5 15.80227,-36.85314 22.25214,-76.78117 19.3125,-116.125 -12.26703,-8.24461 -27.77238,-12.40612 -46.5625,-12.40625 z m -51.09375,195.75 c -1.43919,0.003 -2.79323,0.54849 -4.03125,1.625 -1.5328,1.3329 -2.39188,2.85994 -2.59375,4.5625 -0.21465,1.6879 0.26356,3.42375 1.4375,5.25 l 10.28125,-8.90625 c -1.30724,-1.50329 -2.78987,-2.35514 -4.46875,-2.5 -0.20962,-0.0215 -0.4194,-0.0317 -0.625,-0.0313 z m -238.0625,16.3125 9.5625,4.375 -3.59375,7.78125 -9.5625,-4.375 3.59375,-7.78125 z"
       id="path6674"
       inkscape:connector-curvature="0" />
    <path
       inkscape:connector-curvature="0"
       style="font-size:400px;font-style:normal;font-variant:normal;font-weight:normal;font-stretch:normal;text-align:start;line-height:125%;letter-spacing:0px;word-spacing:0px;writing-mode:lr-tb;text-anchor:start;fill:#000000;fill-opacity:1;stroke:#162d46;stroke-width:6;stroke-miterlimit:4;stroke-opacity:1;stroke-dasharray:144,6;font-family:Sans;-inkscape-font-specification:Sans;stroke-linejoin:round;stroke-dashoffset:0"
       d="m 341.92888,394.40627 -121.28125,184.75 0,38.09375 131.625,0 0,68.75 39.28125,0 0,-68.75 41.59375,0 0,-32.8125 -41.59375,0 0,-190.03125 -49.625,0 z m 206.90625,0 c 9.41232,10.49801 17.75882,21.60377 25.0625,33.1875 l 79.9375,0 0,-33.1875 -105,0 z m -49.875,19.75 0,126.71875 c 10.93745,-4.94777 21.61452,-8.5936 32.03125,-10.9375 9.55022,-2.12215 19.10588,-3.2681 28.65625,-3.46875 -1.78918,-10.68139 -4.45267,-21.2349 -8,-31.5625 -5.51951,0.915 -11.04316,2.30606 -16.5625,4.1875 l 0,-40.125 c -8.31616,-14.10851 -18.50817,-27.41443 -30.625,-39.53125 -1.80282,-1.80282 -3.64613,-3.56259 -5.5,-5.28125 z m -146.6875,14.625 0,155.65625 -99.59375,0 99.59375,-155.65625 z m 251.65625,68.40625 c 3.64765,14.1077 6.03644,28.45952 7.15625,42.90625 1.75763,1.2771 3.44643,2.63773 5.0625,4.09375 13.15087,11.84909 19.71857,27.93761 19.71875,48.25 -1.8e-4,20.31257 -6.56788,36.4011 -19.71875,48.25 -6.52944,5.88291 -14.22217,10.31916 -23.0625,13.28125 -5.33089,12.89107 -11.80188,25.41881 -19.40625,37.4375 30.62842,-1.53629 54.73409,-10.10498 72.34375,-25.71875 19.53104,-17.44788 29.31228,-41.86973 29.3125,-73.25 -2.2e-4,-30.46863 -9.52104,-54.63006 -28.53125,-72.46875 -11.72159,-10.99882 -26.00535,-18.56404 -42.875,-22.78125 z m -117.28125,142.3125 0,39.65625 c 10.01373,3.08116 19.79713,5.58932 29.3125,7.53125 8.01901,-9.51299 14.9964,-19.60587 20.9375,-30.125 -4.72684,-0.72264 -9.36821,-1.64672 -13.90625,-2.78125 -12.50005,-3.12496 -24.62504,-7.901 -36.34375,-14.28125 z"
       id="flowRoot6710" />
  </g>
</svg>
