<?xml version="1.0" encoding="UTF-8" standalone="no"?>
<!-- Created with Inkscape (http://www.inkscape.org/) -->

<svg
   xmlns:dc="http://purl.org/dc/elements/1.1/"
   xmlns:cc="http://creativecommons.org/ns#"
   xmlns:rdf="http://www.w3.org/1999/02/22-rdf-syntax-ns#"
   xmlns:svg="http://www.w3.org/2000/svg"
   xmlns="http://www.w3.org/2000/svg"
   xmlns:sodipodi="http://sodipodi.sourceforge.net/DTD/sodipodi-0.dtd"
   xmlns:inkscape="http://www.inkscape.org/namespaces/inkscape"
   width="744.09448819"
   height="1052.3622047"
   id="svg6666"
   version="1.1"
   inkscape:version="0.48.3.1 r9886"
   sodipodi:docname="45circle_4.svg">
  <defs
     id="defs6668">
    <inkscape:perspective
       sodipodi:type="inkscape:persp3d"
       inkscape:vp_x="0 : 526.18109 : 1"
       inkscape:vp_y="0 : 1000 : 0"
       inkscape:vp_z="744.09448 : 526.18109 : 1"
       inkscape:persp3d-origin="372.04724 : 350.78739 : 1"
       id="perspective7387" />
  </defs>
  <sodipodi:namedview
     id="base"
     pagecolor="#ffffff"
     bordercolor="#666666"
     borderopacity="1.0"
     inkscape:pageopacity="0.0"
     inkscape:pageshadow="2"
     inkscape:zoom="0.50933035"
     inkscape:cx="227.11598"
     inkscape:cy="458.98584"
     inkscape:document-units="px"
     inkscape:current-layer="layer1"
     showgrid="false"
     inkscape:window-width="1336"
     inkscape:window-height="721"
     inkscape:window-x="30"
     inkscape:window-y="0"
     inkscape:window-maximized="1" />
  <metadata
     id="metadata6671">
    <rdf:RDF>
      <cc:Work
         rdf:about="">
        <dc:format>image/svg+xml</dc:format>
        <dc:type
           rdf:resource="http://purl.org/dc/dcmitype/StillImage" />
        <dc:title></dc:title>
      </cc:Work>
    </rdf:RDF>
  </metadata>
  <g
     inkscape:label="Layer 1"
     inkscape:groupmode="layer"
     id="layer1">
    <path
       style="fill:#aa0000;fill-opacity:1;stroke:#16202b;stroke-width:5;stroke-linecap:round;stroke-linejoin:round;stroke-miterlimit:4;stroke-opacity:1;stroke-dasharray:none;stroke-dashoffset:49.99999523000000323"
       d="M 398.0625 251.0625 C 368.95694 251.27288 340.15274 256.62437 313.03125 266.75 C 261.10639 286.13586 215.34463 323.0347 185.46875 374.78125 C 117.18094 493.05908 157.69087 644.2747 275.96875 712.5625 C 280.87292 715.39385 285.86569 718.0092 290.875 720.46875 C 288.40927 718.34493 286.57077 715.94528 285.4375 713.21875 C 283.42877 708.34195 283.77733 703.05298 286.46875 697.34375 C 289.16022 691.63447 293.00072 688.00198 298.03125 686.46875 C 303.07153 684.91494 308.72359 685.61847 314.96875 688.5625 C 316.78243 689.41759 318.46602 690.43808 320.0625 691.59375 C 321.68925 692.73854 323.2368 694.00385 324.6875 695.46875 L 320.40625 704.53125 C 319.38742 702.79141 318.29195 701.30749 317 700.09375 C 315.72854 698.88983 314.25324 697.89263 312.625 697.125 C 309.5333 695.66759 306.7113 695.40867 304.125 696.40625 C 301.56892 697.39299 299.49417 699.54528 297.96875 702.78125 C 296.44325 706.01715 296.14431 708.94228 297 711.5625 C 297.88598 714.17184 299.84577 716.19882 302.9375 717.65625 C 304.66875 718.47244 306.42997 719.00533 308.21875 719.21875 C 310.02801 719.4419 311.82976 719.35687 313.625 718.96875 L 309.34375 728 C 308.57469 727.933 307.81806 727.86842 307.0625 727.75 C 326.39659 735.57956 346.32266 740.75647 366.34375 743.46875 L 370.5 705.53125 L 382.6875 706.875 L 378.5 744.84375 C 398.71398 746.56336 418.97119 745.78016 438.78125 742.59375 L 431.03125 705.375 L 443.03125 702.875 L 444.28125 709.03125 C 445.30906 706.25674 446.71581 704.09166 448.46875 702.5625 C 450.23929 701.00648 452.52404 699.92489 455.3125 699.34375 C 455.71397 699.25995 456.14721 699.20932 456.625 699.15625 C 457.09806 699.08095 457.80318 699.01196 458.71875 698.9375 L 461 709.75 C 459.84927 709.47774 458.71991 709.37967 457.625 709.375 C 456.5477 709.3435 455.51715 709.40655 454.46875 709.625 C 451.39033 710.26661 449.1968 711.75977 447.9375 714.09375 C 446.69592 716.40083 446.45167 719.41311 447.21875 723.09375 L 450.84375 740.34375 C 477.54164 734.68761 503.22449 724.61311 526.8125 710.5 C 523.68291 711.41791 520.65973 711.68961 517.75 711.15625 C 512.56514 710.18881 508.32643 706.98916 505 701.625 C 501.67351 696.26088 500.73745 691.08643 502.1875 686.03125 C 503.62558 680.9568 507.25741 676.57632 513.125 672.9375 C 514.82913 671.88077 516.63057 670.99223 518.46875 670.28125 C 520.31427 669.53899 522.2316 668.98291 524.25 668.5625 L 529.5 677 C 527.48587 676.9084 525.62753 677.07604 523.90625 677.5 C 522.20439 677.91188 520.59237 678.61384 519.0625 679.5625 C 516.15774 681.36387 514.41366 683.59962 513.84375 686.3125 C 513.28126 688.99404 513.95831 691.86595 515.84375 694.90625 C 517.72908 697.94655 519.99207 699.85528 522.65625 700.5625 C 525.32769 701.23858 528.12649 700.64509 531.03125 698.84375 C 532.65789 697.83498 534.03532 696.6348 535.1875 695.25 C 536.35898 693.85319 537.2865 692.31117 537.9375 690.59375 L 543.21875 699.09375 C 542.7157 699.73899 542.16854 700.33653 541.625 700.9375 C 558.24193 689.30567 573.53924 675.51934 587.125 659.6875 L 546 626.09375 L 553.78125 616.625 L 594.875 650.1875 C 601.71256 641.36878 608.07684 631.99694 613.8125 622.0625 C 620.09532 611.18024 625.41031 600.00667 629.875 588.65625 C 628.04048 591.1863 625.87752 593.17554 623.375 594.5 C 618.75647 596.9079 613.48273 596.99399 607.5 594.84375 C 601.62449 592.73205 597.62627 589.31073 595.53125 584.5625 C 593.44407 579.79292 593.51498 574.31243 595.75 568.09375 C 597.78468 562.43275 601.12278 558.53768 605.75 556.375 C 610.38498 554.19094 615.546 554.10621 621.25 556.15625 L 624.53125 557.3125 L 614.875 584.25 C 617.67703 584.94235 620.01669 584.7183 621.96875 583.53125 C 623.92083 582.34429 625.45228 580.25217 626.53125 577.25 C 627.40208 574.82695 627.92319 572.19091 628.125 569.40625 C 628.31303 566.59248 628.18235 563.61079 627.6875 560.40625 L 636.5625 563.59375 C 636.6012 565.96275 636.48191 568.27081 636.21875 570.53125 C 639.96951 558.263 642.72358 545.8231 644.5 533.34375 C 637.58709 537.20604 629.88243 540.67631 621.4375 543.75 C 611.37363 547.41292 600.80294 550.30048 589.6875 552.40625 C 581.18584 554.0024 572.25797 555.16902 562.9375 555.90625 C 559.43675 565.81942 555.00891 575.53529 549.5625 584.96875 C 501.76112 667.76319 395.88825 696.1139 313.09375 648.3125 C 230.29924 600.51103 201.9173 494.66949 249.71875 411.875 C 297.52022 329.0805 403.39304 300.66731 486.1875 348.46875 C 488.01824 349.52569 489.78523 350.63714 491.5625 351.75 L 479.53125 318.625 L 541.71875 295.96875 C 535.80183 291.82542 529.65454 287.92961 523.28125 284.25 C 483.77833 261.44293 440.6014 250.75502 398.0625 251.0625 z M 568.09375 317.28125 L 519.125 335.09375 L 540.53125 393.875 C 544.65747 390.55471 548.96833 387.68293 553.40625 385.21875 C 557.80517 382.64786 562.35178 380.49594 567.0625 378.78125 C 583.00758 372.97783 597.92431 370.50355 611.8125 371.34375 C 600.02125 351.6107 585.4006 333.3509 568.09375 317.28125 z M 600.65625 402.6875 C 591.55222 402.51617 581.79339 404.33309 571.375 408.125 C 564.84092 410.50332 558.51087 413.43404 552.375 416.90625 C 569.88186 449.79894 576.53743 487.86512 570.71875 525.15625 C 572.77296 525.03944 574.83175 524.90097 576.875 524.6875 C 588.08804 523.51622 599.41938 520.82577 610.875 516.65625 C 627.2601 510.69261 639.23507 502.01765 646.8125 490.625 C 645.94795 463.98431 640.80057 437.68573 631.625 412.78125 C 628.29294 410.34906 624.65006 408.32128 620.6875 406.71875 C 614.40532 404.17831 607.73716 402.82076 600.65625 402.6875 z M 372.15625 690.71875 L 384.28125 692.0625 L 383.25 701.96875 L 371.0625 700.65625 L 372.15625 690.71875 z "
       id="path7430" />
    <path
       style="fill:#000000;fill-opacity:1;stroke:#162d46;stroke-width:5;stroke-linecap:round;stroke-linejoin:round;stroke-miterlimit:4;stroke-opacity:1;stroke-dasharray:none;stroke-dashoffset:49.99999523000000323"
       d="M 606.84375 272.28125 L 541.71875 295.96875 C 551.09516 302.53463 559.89502 309.66858 568.09375 317.28125 L 616.78125 299.5625 L 606.84375 272.28125 z M 391.1875 350.78125 L 350.40625 365.625 L 305.96875 553.8125 L 317.375 585.15625 L 425.59375 545.75 L 446.1875 602.28125 L 478.46875 590.53125 L 457.875 534 L 492.09375 521.5625 L 482.28125 494.5625 L 448.0625 507.03125 L 391.1875 350.78125 z M 491.5625 351.75 L 523.34375 439.03125 C 530.85616 431.68981 538.51144 425.51338 546.375 420.46875 C 548.33997 419.21556 550.36739 418.04231 552.375 416.90625 C 538.59021 391.00667 518.04289 368.33158 491.5625 351.75 z M 611.8125 371.34375 C 619.70886 384.55858 626.33825 398.43208 631.625 412.78125 C 640.3671 419.16252 646.94233 428.37626 651.34375 440.46875 C 657.42251 457.17043 656.82959 472.38436 649.5625 486.0625 C 648.72421 487.6403 647.80072 489.13958 646.8125 490.625 C 647.27343 504.82878 646.52594 519.11115 644.5 533.34375 C 661.51244 523.83869 673.89101 511.93749 681.625 497.65625 C 692.46243 477.46509 693.17217 454.45811 683.78125 428.65625 C 674.66281 403.60401 659.59422 386.60341 638.625 377.625 C 630.14776 373.99551 621.23687 371.91392 611.8125 371.34375 z M 369.1875 390.75 L 415.78125 518.78125 L 333.84375 548.59375 L 369.1875 390.75 z M 542.75 523.84375 L 554.59375 556.4375 C 557.41309 556.29482 560.18931 556.12362 562.9375 555.90625 C 566.50448 545.80555 569.10426 535.50322 570.71875 525.15625 C 561.49932 525.68052 552.19125 525.26579 542.75 523.84375 z "
       id="path7428" />
    <path
       style="fill:#800000;fill-opacity:1;stroke:#162d46;stroke-width:1;stroke-linecap:round;stroke-linejoin:round;stroke-miterlimit:4;stroke-opacity:1;stroke-dasharray:none;stroke-dashoffset:49.99999523000000323"
       d="m 607.20781,566.6536 c -1.80561,0.77967 -3.09808,2.19835 -3.83799,4.25688 -0.80114,2.23032 -0.80512,4.2521 -0.0409,6.10067 0.74278,1.84081 2.21915,3.3733 4.45469,4.56414 l 5.39405,-14.96617 c -2.1871,-0.78647 -4.17793,-0.76421 -5.96983,0.0445 z"
       id="path7412" />
  </g>
</svg>
