<?xml version="1.0" encoding="UTF-8" standalone="no"?>
<!-- Created with Inkscape (http://www.inkscape.org/) -->

<svg
   xmlns:dc="http://purl.org/dc/elements/1.1/"
   xmlns:cc="http://creativecommons.org/ns#"
   xmlns:rdf="http://www.w3.org/1999/02/22-rdf-syntax-ns#"
   xmlns:svg="http://www.w3.org/2000/svg"
   xmlns="http://www.w3.org/2000/svg"
   xmlns:sodipodi="http://sodipodi.sourceforge.net/DTD/sodipodi-0.dtd"
   xmlns:inkscape="http://www.inkscape.org/namespaces/inkscape"
   width="210mm"
   height="297mm"
   id="svg7623"
   version="1.1"
   inkscape:version="0.48.3.1 r9886"
   sodipodi:docname="rainwalk2.svg">
  <defs
     id="defs3" />
  <sodipodi:namedview
     inkscape:document-units="mm"
     id="base"
     pagecolor="#ffffff"
     bordercolor="#666666"
     borderopacity="1.0"
     inkscape:pageopacity="0.0"
     inkscape:pageshadow="2"
     inkscape:zoom="1.4"
     inkscape:cx="377.22932"
     inkscape:cy="659.7421"
     inkscape:current-layer="layer1"
     showgrid="false"
     inkscape:window-width="1336"
     inkscape:window-height="721"
     inkscape:window-x="30"
     inkscape:window-y="0"
     inkscape:window-maximized="1" />
  <metadata
     id="metadata4">
    <rdf:RDF>
      <cc:Work
         rdf:about="">
        <dc:format>image/svg+xml</dc:format>
        <dc:type
           rdf:resource="http://purl.org/dc/dcmitype/StillImage" />
        <dc:title></dc:title>
      </cc:Work>
    </rdf:RDF>
  </metadata>
  <g
     inkscape:label="Layer 1"
     inkscape:groupmode="layer"
     id="layer1">
    <path
       style="fill:#002255;fill-opacity:1;stroke:none"
       d="m 131.91518,244.41295 0,163 163,0 0,-163 -163,0 z m 1.78125,1.78125 159.4375,0 0,159.4375 -159.4375,0 0,-159.4375 z"
       id="rect12191"
       inkscape:connector-curvature="0" />
    <path
       style="fill:#002255;fill-opacity:1;stroke:none"
       d="m 133.69643,246.17857 0,159.46875 159.4375,0 0,-159.46875 -159.4375,0 z m 0.71875,0.71875 158.03125,0 0,13.3125 -1.25,0 0,17.625 -9.40625,-17.625 -7.375,0 0,25.65625 6.28125,0 0,-17.625 9.34375,17.625 2.40625,0 0,27.59375 -9.21875,8.96875 0,-9.34375 -6.625,0 0,25.65625 6.625,0 0,-10.09375 9.21875,9.0625 0,28.25 -3.4375,0 -5.84375,13.75 -5.90625,-13.75 -8.40625,0 0,25.6875 6.28125,0 0,-18.8125 5.90625,13.875 4.1875,0 5.96875,-13.875 0,18.8125 1.25,0 0,13.28125 -151.28125,0 c 11.11505,-4.46081 19.4375,-19.48416 19.4375,-33.71875 0,-6.22232 -2.34418,-14.56513 -3.3125,-16.84375 -0.86094,-2.02581 -20.71372,-68.65803 -22.875,-98.96875 l 0,-8.5 z m 72.46875,13.3125 0,25.65625 6.59375,0 0,-9.71875 1.90625,0 c 1.12478,0 2.01348,0.26476 2.65625,0.78125 0.65418,0.50501 1.28964,1.38864 1.875,2.59375 l 3.09375,6.34375 7.0625,0 -3.625,-7.25 c -0.66571,-1.33137 -1.28841,-2.45806 -2,-3.25 -0.70013,-0.79193 -1.59523,-1.27045 -2.59375,-1.5 3.29402,-1.03296 4.93747,-3.23083 4.9375,-6.59375 -3e-5,-1.1133 -0.1474,-2.1111 -0.46875,-2.9375 -0.3099,-0.83784 -0.82796,-1.54473 -1.5625,-2.1875 -0.73459,-0.64271 -1.73431,-1.16713 -3.03125,-1.5 -1.29696,-0.33276 -2.90214,-0.43748 -4.75,-0.4375 l -10.09375,0 z m 33.5625,0 -9.53125,25.65625 6.6875,0 1.625,-4.65625 10.375,0 1.59375,4.65625 6.6875,0 -9.53125,-25.65625 -7.90625,0 z m 20.8125,0 0,25.65625 6.6875,0 0,-25.65625 -6.6875,0 z m -47.78125,4.78125 2.8125,0 c 1.33136,3e-5 2.33747,0.22521 2.96875,0.71875 0.63123,0.48206 0.90624,1.32612 0.90625,2.53125 -1e-5,1.13628 -0.2584,1.99183 -0.84375,2.53125 -0.57389,0.53946 -1.5966,0.78126 -3.03125,0.78125 l -2.8125,0 0,-6.5625 z m 30.9375,1.21875 3.5,10.1875 -7,0 3.5,-10.1875 z m -57.3125,46.875 6.09375,25.65625 7.65625,0 4.65625,-19.5 4.6875,19.5 7.625,0 6.03125,-25.65625 -6.28125,0 -4.46875,18.65625 -4.40625,-18.65625 -6.34375,0 -4.40625,18.65625 -4.5,-18.65625 -6.34375,0 z m 46.28125,0 -9.53125,25.65625 6.6875,0 1.625,-4.65625 10.375,0 1.59375,4.65625 6.625,0 -9.46875,-25.65625 -7.90625,0 z m 20.8125,0 0,25.65625 18.28125,0 0,-4.96875 -11.6875,0 0,-20.6875 -6.59375,0 z m -16.84375,6.03125 3.5,10.15625 -7.0625,0 3.5625,-10.15625 z m 55.09375,1.875 0,8.5 -4.28125,-4.28125 4.28125,-4.21875 z m -64.6875,44.96875 6.09375,25.6875 7.625,0 4.625,-19.53125 4.65625,19.53125 7.65625,0 6.09375,-25.6875 -6.3125,0 -4.46875,18.6875 -4.40625,-18.6875 -6.34375,0 -4.40625,18.6875 -4.46875,-18.6875 -6.34375,0 z"
       id="rect12188"
       inkscape:connector-curvature="0" />
  </g>
</svg>
